<svg xmlns="http://www.w3.org/2000/svg" width="25.449" height="25.484" viewBox="0 0 25.449 25.484">
  <g id="Untitled-1" transform="translate(-0.869 -0.836)">
    <path id="Path_4" data-name="Path 4" d="M13.538,26.32a12.742,12.742,0,1,1,12.78-12.76A12.762,12.762,0,0,1,13.538,26.32Zm-8.76-6.351a7.384,7.384,0,0,1,.355-1.1,12.076,12.076,0,0,1,1.3-2.285,2.383,2.383,0,0,1,3.578-.417,6.327,6.327,0,0,0,7.358-.172,1.95,1.95,0,0,1,2.242-.258,4.417,4.417,0,0,1,2.283,2.67c.185.478.332.969.508,1.491,3.224-3.332,2.78-10.032-.848-13.857A11.045,11.045,0,0,0,6.207,5.475C2.128,9.132,1.4,15.872,4.778,19.969Z" transform="translate(0 0)" fill="#fcfcfc" fill-rule="evenodd"/>
    <path id="Path_5" data-name="Path 5" d="M20.165,9.563a5.344,5.344,0,0,1,5.4,5.383,5.417,5.417,0,1,1-10.833-.041A5.343,5.343,0,0,1,20.165,9.563Z" transform="translate(-6.551 -4.125)" fill="#fcfcfc" fill-rule="evenodd"/>
  </g>
</svg>